<?xml version="1.0" encoding="UTF-8"?>
<svg xmlns="http://www.w3.org/2000/svg" xmlns:xlink="http://www.w3.org/1999/xlink" width="758.968735pt" height="138.842045pt" viewBox="0 0 758.968735 138.842045" version="1.2">
<g id="surface2745308">
<path style="fill:none;stroke-width:1.53256;stroke-linecap:butt;stroke-linejoin:miter;stroke:rgb(100%,100%,100%);stroke-opacity:1;stroke-miterlimit:4;" d="M 701.37661 121.511524 L 693.285851 121.511524 L 693.285851 138.247033 C 693.285851 139.310482 693.387386 140.188673 693.592238 140.883388 C 693.795308 141.578103 694.082101 142.130313 694.450835 142.538235 C 694.858757 142.906969 695.329026 143.172385 695.859859 143.336267 C 696.390693 143.459178 696.964278 143.519743 697.577053 143.519743 C 698.148857 143.519743 698.742036 143.437802 699.354811 143.273921 C 700.008556 143.111821 700.62133 142.885593 701.193134 142.600581 L 701.37661 146.216663 C 700.640924 146.503455 699.864269 146.706526 699.048424 146.829437 C 698.271768 146.993319 697.413171 147.075259 696.472634 147.075259 C 695.695978 147.075259 694.878352 146.973724 694.021536 146.768872 C 693.16294 146.56402 692.364908 146.175692 691.631004 145.603888 C 690.895318 145.032084 690.280762 144.255429 689.790899 143.273921 C 689.342006 142.294194 689.11756 141.006299 689.11756 139.412017 L 689.11756 121.511524 L 683.16973 121.511524 L 683.16973 118.018354 L 689.11756 118.018354 L 689.11756 109.925813 L 693.285851 109.925813 L 693.285851 118.018354 L 701.37661 118.018354 Z M 701.37661 121.511524 " transform="matrix(2.192895,0,0,2.192895,-1256.834504,-202.688607)"/>
<path style="fill:none;stroke-width:1.53256;stroke-linecap:butt;stroke-linejoin:miter;stroke:rgb(100%,100%,100%);stroke-opacity:1;stroke-miterlimit:4;" d="M 712.130444 130.952525 L 712.31392 130.952525 L 725.554478 118.018354 L 731.562873 118.018354 L 717.094985 131.136001 L 733.034244 146.706526 L 726.902937 146.706526 L 712.31392 131.627645 L 712.130444 131.627645 L 712.130444 146.706526 L 707.962153 146.706526 L 707.962153 100.363683 L 712.130444 100.363683 Z M 712.130444 130.952525 " transform="matrix(2.192895,0,0,2.192895,-1256.834504,-202.688607)"/>
<path style="fill:none;stroke-width:1.53256;stroke-linecap:butt;stroke-linejoin:miter;stroke:rgb(100%,100%,100%);stroke-opacity:1;stroke-miterlimit:4;" d="M 756.813095 128.19504 C 756.813095 125.701191 756.159351 123.841492 754.851861 122.615943 C 753.544372 121.390394 751.643702 120.775839 749.149853 120.775839 C 747.434441 120.775839 745.840159 121.084007 744.368788 121.696782 C 742.897417 122.309556 741.650493 123.127182 740.629796 124.147879 L 738.299828 121.390394 C 739.486188 120.204035 741.037718 119.224308 742.959763 118.447652 C 744.920998 117.670996 747.128054 117.282668 749.579152 117.282668 C 751.132463 117.282668 752.58424 117.507115 753.9327 117.956008 C 755.28116 118.365712 756.465738 118.99808 757.488216 119.856677 C 758.508913 120.715274 759.306945 121.798317 759.878749 123.105806 C 760.450553 124.413296 760.737345 125.947013 760.737345 127.703395 L 760.737345 140.270614 C 760.737345 141.373251 760.778316 142.518641 760.858475 143.703219 C 760.940416 144.889579 761.063327 145.890681 761.227208 146.706526 L 757.488216 146.706526 C 757.365305 146.011811 757.26377 145.256531 757.181829 144.438905 C 757.099888 143.621278 757.058918 142.825028 757.058918 142.048372 L 756.936007 142.048372 C 755.628517 143.968636 754.13577 145.358066 752.461329 146.216663 C 750.826076 147.034289 748.843466 147.442211 746.51528 147.442211 C 745.410861 147.442211 744.267253 147.280111 743.080893 146.952348 C 741.937285 146.667337 740.875618 146.175692 739.89411 145.480977 C 738.953573 144.786262 738.157322 143.886695 737.503578 142.784058 C 736.890803 141.68142 736.584416 140.331179 736.584416 138.738678 C 736.584416 136.531621 737.134844 134.794834 738.239263 133.528314 C 739.382871 132.219044 740.895213 131.258912 742.774506 130.646137 C 744.655581 129.992393 746.800291 129.58447 749.212199 129.420589 C 751.663297 129.215737 754.198116 129.114201 756.813095 129.114201 Z M 755.587547 132.363331 C 753.870353 132.363331 752.133566 132.445271 750.377183 132.607372 C 748.65999 132.730283 747.087084 133.017075 745.656683 133.465968 C 744.267253 133.875672 743.121864 134.488446 742.224078 135.306073 C 741.324511 136.121918 740.875618 137.204961 740.875618 138.553421 C 740.875618 139.575899 741.059094 140.434495 741.426046 141.12921 C 741.83575 141.823926 742.366584 142.39573 743.020328 142.844622 C 743.674073 143.254326 744.390164 143.560713 745.16682 143.765565 C 745.982665 143.927665 746.800291 144.009606 747.617917 144.009606 C 749.089288 144.009606 750.396778 143.765565 751.542167 143.273921 C 752.685775 142.743087 753.645907 142.048372 754.422563 141.189775 C 755.199219 140.29199 755.792399 139.269512 756.200321 138.125904 C 756.608244 136.980514 756.813095 135.77456 756.813095 134.508041 L 756.813095 132.363331 Z M 755.587547 132.363331 " transform="matrix(2.192895,0,0,2.192895,-1256.834504,-202.688607)"/>
<path style="fill:none;stroke-width:1.53256;stroke-linecap:butt;stroke-linejoin:miter;stroke:rgb(100%,100%,100%);stroke-opacity:1;stroke-miterlimit:4;" d="M 771.416364 124.331355 C 771.416364 123.55648 771.394988 122.553597 771.354017 121.328048 C 771.313047 120.102499 771.252482 118.99808 771.170541 118.018354 L 775.155356 118.018354 C 775.237297 118.79501 775.297862 119.653607 775.338832 120.592363 C 775.379802 121.5329 775.401178 122.309556 775.401178 122.92233 L 775.522308 122.92233 C 776.339934 121.246107 777.567264 119.897647 779.200736 118.876951 C 780.835988 117.813502 782.674311 117.282668 784.717486 117.282668 C 785.250101 117.282668 785.72037 117.302263 786.128292 117.343233 C 786.577185 117.384204 787.027859 117.466145 787.476752 117.589056 L 786.924543 121.511524 C 786.680502 121.431365 786.270798 121.349424 785.698994 121.267483 C 785.12719 121.185542 784.555386 121.144572 783.983582 121.144572 C 782.879163 121.144572 781.817496 121.349424 780.795018 121.757346 C 779.77254 122.165269 778.874754 122.820795 778.098098 123.718581 C 777.362413 124.577177 776.749638 125.701191 776.257994 127.090621 C 775.809101 128.439081 775.584654 130.074333 775.584654 131.994597 L 775.584654 146.706526 L 771.416364 146.706526 Z M 771.416364 124.331355 " transform="matrix(2.192895,0,0,2.192895,-1256.834504,-202.688607)"/>
<path style="fill:none;stroke-width:1.53256;stroke-linecap:butt;stroke-linejoin:miter;stroke:rgb(100%,100%,100%);stroke-opacity:1;stroke-miterlimit:4;" d="M 808.710097 124.823 C 808.097322 123.63664 807.156785 122.676508 805.890266 121.940822 C 804.664717 121.164167 803.253911 120.775839 801.66141 120.775839 C 800.925725 120.775839 800.190039 120.857779 799.454354 121.021661 C 798.718668 121.185542 798.064923 121.450959 797.491338 121.817911 C 796.919534 122.186645 796.449265 122.656913 796.082313 123.228717 C 795.75455 123.800521 795.59245 124.475642 795.59245 125.252298 C 795.59245 126.600758 796.142878 127.64283 797.247297 128.378516 C 798.349935 129.073231 800.086722 129.66463 802.45766 130.156274 C 805.849295 130.850989 808.343144 131.871686 809.935645 133.220146 C 811.570898 134.529417 812.388524 136.307175 812.388524 138.553421 C 812.388524 140.188673 812.060761 141.578103 811.407016 142.723493 C 810.794242 143.82613 809.976616 144.745292 808.955919 145.480977 C 807.933441 146.175692 806.768457 146.667337 805.460967 146.952348 C 804.194448 147.280111 802.906553 147.442211 801.599064 147.442211 C 799.432978 147.442211 797.329238 146.993319 795.286063 146.093752 C 793.241106 145.195966 791.566665 143.78516 790.259175 141.864896 L 793.568869 139.412017 C 794.304555 140.678536 795.387598 141.741985 796.817999 142.600581 C 798.248399 143.459178 799.821306 143.886695 801.538499 143.886695 C 802.438066 143.886695 803.294881 143.806536 804.112507 143.642654 C 804.930134 143.478773 805.644443 143.19198 806.258999 142.784058 C 806.871773 142.376135 807.361637 141.864896 807.73037 141.252122 C 808.097322 140.598377 808.280798 139.800345 808.280798 138.861589 C 808.280798 137.349248 807.545113 136.225234 806.073742 135.489549 C 804.643341 134.712893 802.559196 133.996802 799.821306 133.343057 C 798.962709 133.139987 798.043547 132.894164 797.063821 132.607372 C 796.123284 132.28139 795.245092 131.830716 794.427466 131.258912 C 793.60984 130.646137 792.934719 129.890857 792.403886 128.99129 C 791.873052 128.091723 791.607635 126.96771 791.607635 125.61925 C 791.607635 124.147879 791.892647 122.900954 792.466232 121.880258 C 793.038036 120.816809 793.793316 119.959994 794.733853 119.306249 C 795.71358 118.609753 796.817999 118.100295 798.043547 117.772532 C 799.269096 117.44655 800.537397 117.282668 801.844886 117.282668 C 803.847091 117.282668 805.78873 117.731561 807.668024 118.631128 C 809.549099 119.530695 810.958123 120.797214 811.898661 122.432467 Z M 808.710097 124.823 " transform="matrix(2.192895,0,0,2.192895,-1256.834504,-202.688607)"/>
<path style="fill:none;stroke-width:1.53256;stroke-linecap:butt;stroke-linejoin:miter;stroke:rgb(100%,100%,100%);stroke-opacity:1;stroke-miterlimit:4;" d="M 825.039465 122.738854 C 825.81612 121.062631 827.102234 119.733766 828.901368 118.75404 C 830.698721 117.772532 832.618985 117.282668 834.663941 117.282668 C 838.301398 117.282668 841.017912 118.365712 842.817046 120.531798 C 844.65537 122.697884 845.574531 125.558685 845.574531 129.114201 L 845.574531 146.706526 L 841.40624 146.706526 L 841.40624 130.829613 C 841.40624 129.317272 841.283329 127.949218 841.039288 126.723669 C 840.793466 125.496339 840.364168 124.454266 839.751393 123.59567 C 839.179589 122.697884 838.381558 122.003169 837.360861 121.511524 C 836.379353 121.021661 835.132428 120.775839 833.621868 120.775839 C 832.517449 120.775839 831.434406 121.002066 830.372739 121.450959 C 829.350261 121.899852 828.431099 122.594567 827.613473 123.535105 C 826.795847 124.434672 826.142102 125.599655 825.652239 127.030056 C 825.160594 128.419486 824.916553 130.074333 824.916553 131.994597 L 824.916553 146.706526 L 820.748263 146.706526 L 820.748263 100.363683 L 824.916553 100.363683 L 824.916553 122.738854 Z M 825.039465 122.738854 " transform="matrix(2.192895,0,0,2.192895,-1256.834504,-202.688607)"/>
<path style="fill-rule:nonzero;fill:rgb(35.686275%,67.843139%,70.980394%);fill-opacity:1;stroke-width:0.602803;stroke-linecap:butt;stroke-linejoin:miter;stroke:rgb(0%,0%,0%);stroke-opacity:1;stroke-miterlimit:4;" d="M 612.786181 123.912745 L 630.731207 108.848114 L 639.037506 109.072561 L 621.635783 123.912745 L 639.037506 139.176883 L 630.731207 138.952436 Z M 612.786181 123.912745 " transform="matrix(2.192895,0,0,2.192895,-1256.834504,-202.688607)"/>
<path style=" stroke:none;fill-rule:nonzero;fill:rgb(35.686275%,67.843139%,70.980394%);fill-opacity:1;" d="M 224.613281 22.113281 L 234.113281 22.113281 L 234.113281 86.167969 C 234.113281 86.167969 234.464844 100.695312 225.136719 108.722656 C 215.8125 116.753906 220.953125 111.160156 220.953125 111.160156 Z M 224.613281 22.113281 "/>
<path style="fill-rule:nonzero;fill:rgb(100%,100%,100%);fill-opacity:1;stroke-width:1.53256;stroke-linecap:butt;stroke-linejoin:miter;stroke:rgb(100%,100%,100%);stroke-opacity:1;stroke-miterlimit:4;" d="M 662.073547 147.810945 C 658.803042 147.810945 656.127498 147.258735 654.043353 146.156098 C 651.959207 145.010709 650.302579 143.580308 649.07703 141.864896 C 647.851482 140.147703 646.992885 138.288004 646.503022 136.285799 C 646.052348 134.242624 645.827901 132.32236 645.827901 130.523226 L 645.827901 103.304644 L 650.242014 103.304644 L 650.242014 130.033363 C 650.242014 131.789745 650.446866 133.506939 650.854789 135.183162 C 651.264492 136.816633 651.918237 138.288004 652.816023 139.595493 C 653.75656 140.863794 654.982109 141.905866 656.49445 142.723493 C 658.006792 143.498367 659.866491 143.886695 662.073547 143.886695 C 664.280604 143.886695 666.140303 143.498367 667.652644 142.723493 C 669.163204 141.905866 670.369158 140.863794 671.268725 139.595493 C 672.209263 138.288004 672.882602 136.816633 673.292306 135.183162 C 673.700228 133.506939 673.90508 131.789745 673.90508 130.033363 L 673.90508 103.304644 L 678.319193 103.304644 L 678.319193 130.523226 C 678.319193 132.32236 678.073371 134.242624 677.583508 136.285799 C 677.132833 138.288004 676.295613 140.147703 675.070064 141.864896 C 673.842734 143.580308 672.168292 145.010709 670.043176 146.156098 C 667.959031 147.258735 665.3013 147.810945 662.073547 147.810945 Z M 662.073547 147.810945 " transform="matrix(2.192895,0,0,2.192895,-1256.834504,-202.688607)"/>
<path style="fill-rule:nonzero;fill:rgb(35.686275%,67.843139%,70.980394%);fill-opacity:1;stroke-width:0.602803;stroke-linecap:butt;stroke-linejoin:miter;stroke:rgb(35.686275%,67.843139%,70.980394%);stroke-opacity:1;stroke-miterlimit:4;" d="M 879.595978 126.534849 L 861.650952 111.470219 L 853.344653 111.696446 L 870.746376 126.534849 L 853.344653 141.798987 L 861.650952 141.574541 Z M 879.595978 126.534849 " transform="matrix(2.192895,0,0,2.192895,-1256.834504,-202.688607)"/>
</g>
</svg>
