<?xml version="1.0" encoding="UTF-8"?>
<svg xmlns="http://www.w3.org/2000/svg" xmlns:xlink="http://www.w3.org/1999/xlink" width="643.495514pt" height="117.717945pt" viewBox="0 0 643.495514 117.717945" version="1.2">
<g id="surface151367">
<path style="fill:none;stroke-width:1.53256;stroke-linecap:butt;stroke-linejoin:miter;stroke:rgb(100%,100%,100%);stroke-opacity:1;stroke-miterlimit:4;" d="M 701.376922 121.511953 L 693.284365 121.511953 L 693.284365 138.247647 C 693.284365 139.310169 693.386754 140.189165 693.591531 140.884634 C 693.796308 141.578171 694.082223 142.130683 694.449276 142.538305 C 694.85883 142.90729 695.328272 143.171955 695.859533 143.336163 C 696.390795 143.45787 696.962625 143.51969 697.576956 143.51969 C 698.148786 143.51969 698.741867 143.438552 699.354266 143.274344 C 700.007234 143.110135 700.621566 142.88604 701.193396 142.600125 L 701.376922 146.216565 C 700.640884 146.50248 699.864277 146.707257 699.047101 146.830896 C 698.270493 146.993172 697.412748 147.07431 696.473865 147.07431 C 695.697257 147.07431 694.880081 146.973853 694.020404 146.769076 C 693.162658 146.564299 692.364801 146.175996 691.630694 145.604165 C 690.894656 145.032335 690.282257 144.255728 689.791565 143.274344 C 689.341441 142.292959 689.117346 141.006341 689.117346 139.412558 L 689.117346 121.511953 L 683.171084 121.511953 L 683.171084 118.01722 L 689.117346 118.01722 L 689.117346 109.926595 L 693.284365 109.926595 L 693.284365 118.01722 L 701.376922 118.01722 Z M 701.376922 121.511953 " transform="matrix(2.022016,0,0,2.022016,-1187.062688,-192.046794)"/>
<path style="fill:none;stroke-width:1.53256;stroke-linecap:butt;stroke-linejoin:miter;stroke:rgb(100%,100%,100%);stroke-opacity:1;stroke-miterlimit:4;" d="M 712.129649 130.952947 L 712.313176 130.952947 L 725.554137 118.01722 L 731.562218 118.01722 L 717.094526 131.136474 L 733.034294 146.707257 L 726.904506 146.707257 L 712.313176 131.627166 L 712.129649 131.627166 L 712.129649 146.707257 L 707.960698 146.707257 L 707.960698 100.363894 L 712.129649 100.363894 Z M 712.129649 130.952947 " transform="matrix(2.022016,0,0,2.022016,-1187.062688,-192.046794)"/>
<path style="fill:none;stroke-width:1.53256;stroke-linecap:butt;stroke-linejoin:miter;stroke:rgb(100%,100%,100%);stroke-opacity:1;stroke-miterlimit:4;" d="M 756.813545 128.194253 C 756.813545 125.702155 756.158645 123.841775 754.852709 122.615044 C 753.54484 121.390246 751.643891 120.775915 749.149861 120.775915 C 747.434371 120.775915 745.840587 121.08308 744.36851 121.69548 C 742.898366 122.309811 741.652317 123.126987 740.630363 124.14894 L 738.300542 121.390246 C 739.484771 120.204084 741.037986 119.2227 742.958253 118.448025 C 744.921022 117.671417 747.127205 117.283114 749.580666 117.283114 C 751.131948 117.283114 752.582774 117.507209 753.933144 117.957333 C 755.281581 118.364955 756.465811 118.998605 757.487764 119.85635 C 758.509718 120.716027 759.305643 121.797868 759.879406 123.105737 C 760.451236 124.413605 760.737151 125.945569 760.737151 127.703561 L 760.737151 140.270303 C 760.737151 141.373394 760.77772 142.518987 760.858858 143.703216 C 760.941928 144.889378 761.063635 145.89008 761.227843 146.707257 L 757.487764 146.707257 C 757.366057 146.011788 757.263669 145.256431 757.180599 144.439254 C 757.099461 143.622078 757.058892 142.82422 757.058892 142.047613 L 756.935253 142.047613 C 755.627384 143.969813 754.135989 145.358819 752.461067 146.216565 C 750.826715 147.033741 748.844628 147.443295 746.514806 147.443295 C 745.411714 147.443295 744.266122 147.279087 743.081892 146.952603 C 741.938232 146.666688 740.87571 146.175996 739.894325 145.480526 C 738.95351 144.786989 738.157584 143.886743 737.502684 142.783651 C 736.890285 141.68056 736.583119 140.332122 736.583119 138.738339 C 736.583119 136.532156 737.135631 134.793483 738.238722 133.528115 C 739.382383 132.220247 740.895028 131.260113 742.774727 130.645782 C 744.654426 129.992814 746.800721 129.583259 749.211681 129.420983 C 751.66321 129.216206 754.197809 129.113818 756.813545 129.113818 Z M 755.586815 132.363204 C 753.871324 132.363204 752.134583 132.444342 750.376592 132.608551 C 748.661101 132.730258 747.086636 133.016173 745.65706 133.466296 C 744.266122 133.873918 743.122461 134.488249 742.224147 135.305426 C 741.323901 136.122602 740.87571 137.206375 740.87571 138.554812 C 740.87571 139.576766 741.059236 140.434511 741.426289 141.128048 C 741.835843 141.823517 742.367105 142.395348 743.020073 142.845471 C 743.674973 143.253093 744.389761 143.560259 745.166368 143.765036 C 745.983544 143.929244 746.800721 144.010382 747.617897 144.010382 C 749.089974 144.010382 750.397842 143.765036 751.541503 143.274344 C 752.685163 142.743082 753.645297 142.047613 754.421904 141.189868 C 755.198511 140.291553 755.791592 139.2696 756.201146 138.12594 C 756.608768 136.980347 756.813545 135.774867 756.813545 134.507568 L 756.813545 132.363204 Z M 755.586815 132.363204 " transform="matrix(2.022016,0,0,2.022016,-1187.062688,-192.046794)"/>
<path style="fill:none;stroke-width:1.53256;stroke-linecap:butt;stroke-linejoin:miter;stroke:rgb(100%,100%,100%);stroke-opacity:1;stroke-miterlimit:4;" d="M 771.416467 124.332467 C 771.416467 123.55586 771.395216 122.555157 771.354647 121.328426 C 771.314078 120.101696 771.252259 118.998605 771.171121 118.01722 L 775.154614 118.01722 C 775.237684 118.793827 775.297571 119.653505 775.340072 120.592388 C 775.380641 121.533203 775.39996 122.309811 775.39996 122.92221 L 775.523599 122.92221 C 776.340775 121.247288 777.565574 119.898851 779.201858 118.876897 C 780.836211 117.814375 782.675341 117.283114 784.719247 117.283114 C 785.250509 117.283114 785.71995 117.302432 786.127572 117.343001 C 786.577696 117.385502 787.027819 117.46664 787.47601 117.588348 L 786.92543 121.511953 C 786.680084 121.430815 786.27053 121.349677 785.6987 121.266607 C 785.12687 121.185469 784.555039 121.1449 783.983209 121.1449 C 782.880118 121.1449 781.817595 121.349677 780.795642 121.757299 C 779.773689 122.166853 778.873442 122.819821 778.096835 123.720068 C 777.362729 124.577813 776.748397 125.702155 776.257705 127.091161 C 775.809514 128.439599 775.583487 130.073952 775.583487 131.994219 L 775.583487 146.707257 L 771.416467 146.707257 Z M 771.416467 124.332467 " transform="matrix(2.022016,0,0,2.022016,-1187.062688,-192.046794)"/>
<path style="fill:none;stroke-width:1.53256;stroke-linecap:butt;stroke-linejoin:miter;stroke:rgb(100%,100%,100%);stroke-opacity:1;stroke-miterlimit:4;" d="M 808.711003 124.823159 C 808.096672 123.636998 807.157788 122.676864 805.890489 121.940826 C 804.663759 121.164218 803.255433 120.775915 801.66165 120.775915 C 800.925612 120.775915 800.189573 120.858985 799.453535 121.021261 C 798.717497 121.185469 798.064529 121.450133 797.492698 121.819119 C 796.920868 122.186172 796.449495 122.655613 796.082441 123.229376 C 795.755957 123.801206 795.591749 124.475425 795.591749 125.252032 C 795.591749 126.600469 796.144261 127.641741 797.247352 128.37778 C 798.350444 129.073249 800.087185 129.666329 802.457576 130.15509 C 805.84992 130.850559 808.342018 131.872512 809.935802 133.22095 C 811.572086 134.528818 812.389262 136.306128 812.389262 138.554812 C 812.389262 140.189165 812.060846 141.578171 811.407878 142.721832 C 810.795479 143.826855 809.978302 144.74642 808.956349 145.480526 C 807.934396 146.175996 806.769485 146.666688 805.461616 146.952603 C 804.194317 147.279087 802.907699 147.443295 801.59983 147.443295 C 799.434217 147.443295 797.32849 146.993172 795.284584 146.094857 C 793.242609 145.194611 791.565755 143.786286 790.257887 141.864087 L 793.569093 139.412558 C 794.305131 140.679857 795.386972 141.742379 796.81848 142.600125 C 798.248055 143.45787 799.82252 143.886743 801.538011 143.886743 C 802.436325 143.886743 803.296003 143.805605 804.113179 143.641397 C 804.930355 143.479121 805.645143 143.193205 806.257542 142.783651 C 806.871873 142.376029 807.362566 141.864087 807.729619 141.251687 C 808.096672 140.596787 808.28213 139.800861 808.28213 138.860046 C 808.28213 137.349332 807.546092 136.22499 806.074016 135.488952 C 804.64444 134.712345 802.559964 133.997557 799.82252 133.342657 C 798.962843 133.139812 798.043278 132.894466 797.063826 132.608551 C 796.12301 132.280134 795.244015 131.831943 794.426838 131.260113 C 793.609662 130.645782 792.935443 129.890425 792.404182 128.990179 C 791.872921 128.091864 791.606324 126.967523 791.606324 125.619085 C 791.606324 124.14894 791.894171 122.90096 792.466002 121.880938 C 793.037832 120.818416 793.793189 119.958738 794.734004 119.30577 C 795.713456 118.610301 796.81848 118.10029 798.043278 117.771874 C 799.270009 117.44539 800.537308 117.283114 801.845176 117.283114 C 803.846582 117.283114 805.788101 117.731305 807.667799 118.631551 C 809.547498 119.529866 810.957755 120.797165 811.89857 122.431518 Z M 808.711003 124.823159 " transform="matrix(2.022016,0,0,2.022016,-1187.062688,-192.046794)"/>
<path style="fill-rule:nonzero;fill:rgb(100%,100%,100%);fill-opacity:1;stroke-width:1.53256;stroke-linecap:butt;stroke-linejoin:miter;stroke:rgb(100%,100%,100%);stroke-opacity:1;stroke-miterlimit:4;" d="M 825.039074 122.738683 C 825.815682 121.06183 827.1023 119.734643 828.90086 118.753258 C 830.699421 117.771874 832.619689 117.283114 834.663596 117.283114 C 838.301286 117.283114 841.017479 118.364955 842.81604 120.530569 C 844.65517 122.698114 845.574735 125.557266 845.574735 129.113818 L 845.574735 146.707257 L 841.405783 146.707257 L 841.405783 130.829308 C 841.405783 129.318595 841.284076 127.948907 841.03873 126.722176 C 840.793384 125.497378 840.364511 124.454174 839.752112 123.596429 C 839.17835 122.698114 838.382424 122.002645 837.360471 121.511953 C 836.379086 121.021261 835.133037 120.775915 833.620392 120.775915 C 832.5173 120.775915 831.435459 121.001942 830.372937 121.450133 C 829.350984 121.900257 828.431419 122.595726 827.614242 123.534609 C 826.797066 124.434855 826.142166 125.599766 825.651474 127.029342 C 825.160782 128.418349 824.915435 130.073952 824.915435 131.994219 L 824.915435 146.707257 L 820.748416 146.707257 L 820.748416 100.363894 L 824.915435 100.363894 L 824.915435 122.738683 Z M 825.039074 122.738683 " transform="matrix(2.022016,0,0,2.022016,-1187.062688,-192.046794)"/>
<path style="fill-rule:nonzero;fill:rgb(35.686275%,67.843139%,70.980394%);fill-opacity:1;stroke-width:0.602803;stroke-linecap:butt;stroke-linejoin:miter;stroke:rgb(0%,0%,0%);stroke-opacity:1;stroke-miterlimit:4;" d="M 612.785737 123.913254 L 630.730774 108.848618 L 639.037767 109.072713 L 621.635583 123.913254 L 639.037767 139.176871 L 630.730774 138.952775 Z M 612.785737 123.913254 " transform="matrix(2.022016,0,0,2.022016,-1187.062688,-192.046794)"/>
<path style=" stroke:none;fill-rule:nonzero;fill:rgb(35.686275%,67.843139%,70.980394%);fill-opacity:1;" d="M 178.945312 15.234375 L 187.707031 15.234375 L 187.707031 74.300781 C 187.707031 74.300781 188.027344 87.695312 179.429688 95.097656 C 170.828125 102.503906 175.570312 97.347656 175.570312 97.347656 Z M 178.945312 15.234375 "/>
<path style="fill-rule:nonzero;fill:rgb(100%,100%,100%);fill-opacity:1;stroke-width:1.53256;stroke-linecap:butt;stroke-linejoin:miter;stroke:rgb(100%,100%,100%);stroke-opacity:1;stroke-miterlimit:4;" d="M 662.073253 147.810348 C 658.804548 147.810348 656.126991 147.259768 654.042516 146.154745 C 651.95804 145.011085 650.302437 143.581509 649.077638 141.864087 C 647.850908 140.148596 646.993162 138.288216 646.50247 136.28681 C 646.052347 134.242903 645.828252 132.322635 645.828252 130.524075 L 645.828252 103.306115 L 650.242549 103.306115 L 650.242549 130.033383 C 650.242549 131.791374 650.445394 133.506865 650.854948 135.181787 C 651.264502 136.818071 651.917471 138.288216 652.815785 139.596084 C 653.7566 140.863384 654.983331 141.904656 656.494045 142.721832 C 658.00669 143.498439 659.86707 143.886743 662.073253 143.886743 C 664.279436 143.886743 666.139816 143.498439 667.652462 142.721832 C 669.163175 141.904656 670.368655 140.863384 671.268901 139.596084 C 672.207785 138.288216 672.882004 136.818071 673.291558 135.181787 C 673.701112 133.506865 673.903957 131.791374 673.903957 130.033383 L 673.903957 103.306115 L 678.318255 103.306115 L 678.318255 130.524075 C 678.318255 132.322635 678.072908 134.242903 677.582216 136.28681 C 677.134025 138.288216 676.295598 140.148596 675.068868 141.864087 C 673.844069 143.581509 672.167216 145.011085 670.042171 146.154745 C 667.957695 147.259768 665.301389 147.810348 662.073253 147.810348 Z M 662.073253 147.810348 " transform="matrix(2.022016,0,0,2.022016,-1187.062688,-192.046794)"/>
<path style="fill-rule:nonzero;fill:rgb(35.686275%,67.843139%,70.980394%);fill-opacity:1;stroke-width:0.602803;stroke-linecap:butt;stroke-linejoin:miter;stroke:rgb(35.686275%,67.843139%,70.980394%);stroke-opacity:1;stroke-miterlimit:4;" d="M 879.596702 126.534786 L 861.651664 111.47015 L 853.344671 111.696178 L 870.746856 126.534786 L 853.344671 141.800335 L 861.651664 141.574308 Z M 879.596702 126.534786 " transform="matrix(2.022016,0,0,2.022016,-1187.062688,-192.046794)"/>
</g>
</svg>
